<svg id="Layer_1" enable-background="new 0 0 511.884 511.884" height="512" viewBox="0 0 511.884 511.884" width="512" xmlns="http://www.w3.org/2000/svg"><g><path d="m346.626 132.537-4.405-4.433-172.035.178-4.395 4.431c-26.165 26.382-40.574 61.484-40.574 98.84 0 29.967 9.27 58.531 26.807 82.606l4.5 6.177 199.598-.246 4.486-6.159c17.488-24.008 26.732-52.524 26.732-82.464 0-37.377-14.459-72.511-40.714-98.93z" fill="#ffda44"/><path d="m346.626 132.537-4.405-4.433-86.177.089v192.021l100.077-.123 4.486-6.159c17.488-24.008 26.732-52.524 26.732-82.464.001-37.378-14.458-72.512-40.713-98.931z" fill="#ff9f22"/><path d="m425.182 144.769c-28.491-87.944-94.921-144.769-169.24-144.769s-140.75 56.825-169.239 144.769l-8.854 27.332 70.917-21.562 53.588 16.292 53.589-16.292 53.588 16.292 53.588-16.292 70.918 21.561z" fill="#f7ecd9"/><path d="m370.545 282.715-57.301 17.421-57.303-17.421-57.301 17.421-57.303-17.421-67.759 20.601 1.649 12.602c7.016 53.588 28.514 102.766 60.536 138.475 33.246 37.074 75.926 57.492 120.177 57.492s86.932-20.417 120.178-57.492c32.022-35.708 53.521-84.887 60.536-138.475l1.649-12.602z" fill="#f7ecd9"/><g><path d="m295.209 190.602h30v30.002h-30z" fill="#4b5055"/></g><g><path d="m186.675 190.602h30v30.002h-30z" fill="#4b5055"/></g><g><path d="m255.932 260.337-27.374-21.056 27.486-17.258 27.114 17.46z" fill="#ff9f22"/></g><g><path d="m295.209 190.602h30v30.002h-30z" fill="#373c41"/></g><path d="m363.118 150.539 70.918 21.561-8.854-27.331c-28.478-87.904-94.861-144.716-169.138-144.768v150.569l53.486 16.261z" fill="#edd7b0"/><path d="m370.545 282.715-57.301 17.421-57.2-17.39v229.136c44.214-.032 86.855-20.445 120.075-57.49 32.022-35.708 53.521-84.887 60.536-138.475l1.649-12.602z" fill="#edd7b0"/><path d="m256.044 222.023v38.228l27.114-20.768z" fill="#ff5b5b"/></g></svg>