<?xml version="1.0" encoding="iso-8859-1"?>
<!-- Generator: Adobe Illustrator 19.0.0, SVG Export Plug-In . SVG Version: 6.00 Build 0)  -->
<svg xmlns="http://www.w3.org/2000/svg" xmlns:xlink="http://www.w3.org/1999/xlink" version="1.1" id="Layer_1" x="0px" y="0px" viewBox="0 0 511.955 511.955" style="enable-background:new 0 0 511.955 511.955;" xml:space="preserve" width="512" height="512">
<g>
	<path style="fill:#4D5A68;" d="M123.525,415.491v42.299l-21.301,21.301c-23.399,23.101-61.5,23.101-84.899,0   c-23.101-23.399-23.101-61.5,0-84.901l21.299-21.299h42.301l21,20.999L123.525,415.491z"/>
	<path style="fill:#304653;" d="M101.926,393.89l21.599,21.601v42.299l-21.301,21.301c-23.399,23.101-61.5,23.101-84.899,0   L101.926,393.89z"/>
	<path style="fill:#CAD4E4;" d="M501.799,25.916c-8.699-2.699-17.399-5.099-26.1-6.599c-74.7-14.401-153.6,12.9-202.5,72.9   l-127.5,153.3c-4.799,6.301-4.499,14.7,1.201,20.4l41.999,42.001l42.601,42.599c5.099,5.099,13.499,5.7,19.499,1.5l169.801-129.899   c4.199-3.001,6.299-7.202,6.299-12.301c0-50.7,19.801-98.399,55.801-134.099l24.598-24.901c3.6-3.6,5.101-9,4.2-14.101   C510.5,31.616,506.6,27.715,501.799,25.916z"/>
	<path style="fill:#ADB5CC;" d="M511.7,36.715c0.901,5.101-0.601,10.501-4.2,14.101l-24.598,24.901   c-36,35.7-55.801,83.399-55.801,134.099c0,5.099-2.1,9.3-6.299,12.301L251,352.015c-6,4.2-14.399,3.6-19.499-1.5l-42.601-42.599   l286.8-288.6c8.701,1.5,17.401,3.9,26.1,6.599C506.6,27.715,510.5,31.616,511.7,36.715z"/>
	<path style="fill:#8F97AE;" d="M338,178.016L210.5,308.217c-6,5.999-15.3,5.999-21.301,0c-0.3-0.3-0.3-0.3-0.3-0.601   c-5.7-6-5.4-15,0.3-20.7l127.5-129.9c6-6,15.3-6,21.301,0l0.3,0.3C344.001,163.016,344.001,172.015,338,178.016z"/>
	<path style="fill:#7A869A;" d="M338,178.016L210.5,308.217c-6,5.999-15.3,5.999-21.301,0c-0.3-0.3-0.3-0.3-0.3-0.601l149.401-150.3   C344.001,163.016,344.001,172.015,338,178.016z"/>
	<polygon style="fill:#DD864D;" points="165.826,372.892 165.826,415.491 123.525,457.79 80.925,415.191 38.624,372.892    80.925,330.59 123.525,330.59  "/>
	<polygon style="fill:#D36836;" points="144.225,351.291 165.826,372.892 165.826,415.491 123.525,457.79 80.925,415.191  "/>
	<path style="fill:#4D5A68;" d="M263.599,382.316c-11.699,11.7-30.899,11.7-42.599,0L210.5,371.816l-44.675,43.675l-42.601-42.599   L80.925,330.59l44.675-43.675l-10.499-10.499c-11.7-11.7-11.7-30.901,0-42.601c11.4-11.4,30.599-11.4,42.299,0l52.5,52.5   l53.699,53.701C274.999,351.715,274.999,370.916,263.599,382.316z"/>
	<path style="fill:#304653;" d="M263.599,382.316c-11.699,11.7-30.899,11.7-42.599,0L210.5,371.816l-44.675,43.675l-42.601-42.599   l86.675-86.576l53.699,53.701C274.999,351.715,274.999,370.916,263.599,382.316z"/>
</g>















</svg>
