<svg id="Capa_1" enable-background="new 0 0 512.002 512.002" height="512" viewBox="0 0 512.002 512.002" width="512" xmlns="http://www.w3.org/2000/svg"><g><path d="" fill="none" stroke="#000" stroke-linejoin="round" stroke-miterlimit="10" stroke-width="30"/><path d="m399.198 102.332h-273.005c-2.806-5.135-3.422-6.262-6.229-11.397.024-.038.049-.075.073-.113 78.5-120.52 191.55-121.67 271.9 0 2.481 3.76 4.911 7.6 7.261 11.51z" fill="#ffca3e"/><path d="m416.918 420.562v.01c-73.86 121.93-247.94 121.88-321.81-.01l10.7-24.85h303.58z" fill="#ffe36e"/><path d="m385.829 102.332h-129.831v-102.33c47.88.15 95.96 30.28 135.94 90.82.025.038.05.075.074.113-2.79 5.144-3.392 6.252-6.183 11.397z" fill="#fcb216"/><path d="m271.359 90.822v125.18h-156.491c-13.959-19.546-19.17-26.702-33.129-46.249 9.772-28.126 22.847-54.983 38.681-78.931z" fill="#ff5f7e"/><path d="m416.918 420.572c-36.93 60.97-98.92 91.44-160.92 91.43v-116.29h153.39z" fill="#ffca3e"/><path d="m397.49 216.002h-141.492v-125.18h135.94c15.834 23.949 28.858 50.666 38.63 78.792-13.959 19.546-19.119 26.841-33.078 46.388z" fill="#f43760"/><g><path d="m416.917 420.572h-321.808c-19.779-32.856-30.386-70.78-33.216-110.246 14.182-15.181 21.598-23.144 35.78-38.324h317.604c13.84 14.844 21.081 22.609 34.922 37.453-2.808 39.969-13.507 78.25-33.282 111.117z" fill="#ff5f7e"/><path d="m416.917 420.572h-160.919v-148.57h158.205c14.236 15.268 21.682 23.254 35.917 38.522-2.92 39.583-13.604 77.474-33.203 110.048z" fill="#f43760"/></g><path d="m450.088 310.385-67.38 33.664c-4.23 2.108-9.2 2.108-13.42 0l-53.3-26.629-53.29 26.629c-4.221 2.099-9.154 2.111-13.42 0l-53.29-26.629-53.28 26.629c-4.23 2.108-9.2 2.108-13.42 0l-67.396-33.723c-3.624-48.221 4.203-95.617 19.846-140.573l53.94 24.381 53.61-26.789c4.22-2.108 9.19-2.108 13.41 0l53.29 26.629 53.3-26.629c4.22-2.108 9.19-2.108 13.41 0l53.62 26.789 54.25-24.521c15.822 45.328 23.096 93.186 19.52 140.772z" fill="#ffe36e"/><path d="m450.088 310.382-67.38 33.67c-4.23 2.11-9.2 2.11-13.42 0l-53.3-26.63c-55.218 27.001-53.766 28.21-59.99 28.21v-151.66l53.29-26.63c4.22-2.11 9.19-2.11 13.41 0l53.62 26.79 54.25-24.52c15.82 45.33 23.1 93.19 19.52 140.77z" fill="#ffca3e"/><g fill="#ff5f7e"><circle cx="135.998" cy="272.002" r="15"/><circle cx="195.998" cy="242.002" r="15"/><circle cx="255.998" cy="271.002" r="15"/></g><path d="m270.998 271.002c0 8.28-6.72 15-15 15v-30c8.28 0 15 6.72 15 15z" fill="#f43760"/><circle cx="315.998" cy="242.002" fill="#f43760" r="15"/><circle cx="375.998" cy="272.002" fill="#f43760" r="15"/></g></svg>