<svg id="Layer_3" enable-background="new 0 0 64 64" height="512" viewBox="0 0 64 64" width="512" xmlns="http://www.w3.org/2000/svg"><path d="m34 63v-8l7 7v-6l-7-7v-12l10 10v12h4v-8l5 5 3-3-5-5h8v-4h-12l-10-10h12l7 7h6l-7-7h8v-4h-8l7-7h-6l-7 7h-12l10-10h12v-4h-8l5-5-3-3-5 5v-8h-4v12l-10 10v-12l7-7v-6l-7 7v-8h-4v8l-7-7v6l7 7v12l-10-10v-12h-4v8l-5-5-3 3 5 5h-8v4h12l10 10h-12l-7-7h-6l7 7h-8v4h8l-7 7h6l7-7h12l-10 10h-12v4h8l-5 5 3 3 5-5v8h4v-12l10-10v12l-7 7v6l7-7v8" fill="#c7e2fc"/><path d="m48 45.518v-28.518c0-2.761 2.239-5 5-5s5 2.239 5 5v28.518c2.411 1.615 4 4.362 4 7.482 0 4.971-4.029 9-9 9s-9-4.029-9-9c0-3.12 1.589-5.868 4-7.482z" fill="#2b74ca"/><path d="m50.498 12.694c-1.487.867-2.498 2.461-2.498 4.306v28.518c-2.411 1.615-4 4.362-4 7.482 0 .992.167 1.944.463 2.837 5.522-3.324 9.537-13.409 9.537-25.337 0-6.855-1.326-13.101-3.502-17.806z" fill="#3d98f7"/><circle cx="53" cy="53" fill="#ebf7fe" r="5"/><path d="m53 63c-5.514 0-10-4.486-10-10 0-3.161 1.485-6.111 4-7.999v-28.001c0-3.309 2.691-6 6-6s6 2.691 6 6v28.001c2.515 1.887 4 4.838 4 7.999 0 5.514-4.486 10-10 10zm0-50c-2.206 0-4 1.794-4 4v28.518c0 .333-.166.645-.443.831-2.228 1.491-3.557 3.977-3.557 6.651 0 4.411 3.589 8 8 8s8-3.589 8-8c0-2.674-1.329-5.16-3.557-6.651-.277-.186-.443-.498-.443-.831v-28.518c0-2.206-1.794-4-4-4z"/><path d="m53 59c-3.309 0-6-2.691-6-6s2.691-6 6-6 6 2.691 6 6-2.691 6-6 6zm0-10c-2.206 0-4 1.794-4 4s1.794 4 4 4 4-1.794 4-4-1.794-4-4-4z"/><path d="m52 17h2v31h-2z"/><path d="m30 10c-.26 0-.516-.102-.707-.293l-7-7 1.414-1.414 5.293 5.293v-5.586h2v8c0 .404-.243.769-.617.924-.124.051-.254.076-.383.076z"/><path d="m30 28c-.26 0-.516-.102-.707-.293l-10-10c-.188-.187-.293-.442-.293-.707v-12h2v11.586l8 8v-9.172l-6.707-6.707 1.414-1.414 7 7c.188.187.293.442.293.707v12c0 .404-.243.769-.617.924-.124.051-.254.076-.383.076z"/><path d="m16 14c-.26 0-.516-.102-.707-.293l-5-5 1.414-1.414 3.293 3.293v-5.586h2v8c0 .404-.243.769-.617.924-.124.051-.254.076-.383.076z"/><path d="m13 17h-8v-2h5.586l-3.293-3.293 1.414-1.414 5 5c.286.286.372.716.217 1.09-.154.373-.52.617-.924.617z"/><path d="m27 31h-12c-.266 0-.52-.105-.707-.293l-7-7 1.414-1.414 6.707 6.707h9.172l-8-8h-11.586v-2h12c.266 0 .52.105.707.293l10 10c.286.286.372.716.217 1.09-.154.373-.52.617-.924.617z"/><path d="m9 31h-8v-2h5.586l-5.293-5.293 1.414-1.414 7 7c.286.286.372.716.217 1.09-.154.373-.52.617-.924.617z"/><path d="m34 10c-.129 0-.259-.025-.383-.076-.374-.155-.617-.52-.617-.924v-8h2v5.586l5.293-5.293 1.414 1.414-7 7c-.191.191-.447.293-.707.293z"/><path d="m34 28c-.129 0-.259-.025-.383-.076-.374-.155-.617-.52-.617-.924v-12c0-.265.105-.52.293-.707l7-7 1.414 1.414-6.707 6.707v9.172l8-8v-11.586h2v12c0 .265-.105.52-.293.707l-10 10c-.191.191-.447.293-.707.293z"/><path d="m47 5h2v7h-2z"/><path d="m45 31h-8c-.404 0-.77-.244-.924-.617-.155-.374-.069-.804.217-1.09l11-11 1.414 1.414-9.293 9.293h5.586z"/><path d="m35 63h-2v-8c0-.404.243-.769.617-.924.375-.154.804-.069 1.09.217l7 7-1.414 1.414-5.293-5.293z"/><path d="m40.293 56.707-7-7c-.188-.187-.293-.442-.293-.707v-12c0-.404.243-.769.617-.924.375-.153.804-.069 1.09.217l8 8-1.414 1.414-6.293-6.293v9.172l6.707 6.707z"/><path d="m44.293 42.707-8-8c-.286-.286-.372-.716-.217-1.09.154-.373.52-.617.924-.617h8v2h-5.586l6.293 6.293z"/><path d="m31 63h-2v-5.586l-5.293 5.293-1.414-1.414 7-7c.287-.287.717-.372 1.09-.217.374.155.617.52.617.924z"/><path d="m21 59h-2v-12c0-.265.105-.52.293-.707l10-10c.287-.286.717-.371 1.09-.217.374.155.617.52.617.924v12c0 .265-.105.52-.293.707l-7 7-1.414-1.414 6.707-6.707v-9.172l-8 8z"/><path d="m17 59h-2v-5.586l-3.293 3.293-1.414-1.414 5-5c.286-.286.716-.372 1.09-.217s.617.52.617.924z"/><path d="m8.707 53.707-1.414-1.414 3.293-3.293h-5.586v-2h8c.404 0 .77.244.924.617.155.374.069.804-.217 1.09z"/><path d="m17 45h-12v-2h11.586l8-8h-9.172l-6.707 6.707-1.414-1.414 7-7c.187-.188.441-.293.707-.293h12c.404 0 .77.244.924.617.155.374.069.804-.217 1.09l-10 10c-.187.188-.441.293-.707.293z"/><path d="m2.707 41.707-1.414-1.414 5.293-5.293h-5.586v-2h8c.404 0 .77.244.924.617.155.374.069.804-.217 1.09z"/></svg>